<svg width="153" height="38" viewBox="0 0 153 38" fill="none" xmlns="http://www.w3.org/2000/svg">
<path d="M15.7262 24.6429C15.7177 23.558 15.4455 22.4939 14.9361 21.5538C14.4267 20.6137 13.6974 19.8296 12.8189 19.2776L21.7696 2.78571L19.6773 1.5L10.5137 18.3763C9.38912 18.1092 8.21946 18.1461 7.11174 18.4837C6.00402 18.8213 4.99359 19.4488 4.17288 20.3087C-0.355099 24.9514 -0.00437338 35.8054 0.0125582 36.2657C0.0250598 36.5977 0.157976 36.9117 0.383441 37.1418C0.608906 37.3719 0.909411 37.5003 1.22195 37.5H19.352C19.6058 37.5 19.8532 37.4151 20.0592 37.2573C20.2651 37.0995 20.4191 36.8769 20.4993 36.6209C20.5796 36.3649 20.5821 36.0885 20.5064 35.8309C20.4307 35.5734 20.2807 35.3476 20.0776 35.1857C15.7964 31.7709 15.7262 24.7123 15.7262 24.6429ZM9.59097 20.7819C10.5589 20.7932 11.4855 21.2008 12.178 21.9199C12.8704 22.6391 13.2754 23.6144 13.3087 24.6429C13.3087 24.6917 13.3111 24.9103 13.3292 25.2459L6.19378 21.8721C6.6638 21.4601 7.20618 21.1515 7.7894 20.9644C8.37261 20.7772 8.98501 20.7151 9.59097 20.7819ZM13.848 34.9286C12.8814 33.8821 12.2652 32.5268 12.0944 31.0714H9.67563C9.76225 32.4398 10.1643 33.7645 10.8463 34.9286H8.15784C7.66048 33.26 7.35787 31.5328 7.25684 29.7857H4.83805C4.91604 31.5275 5.18597 33.2536 5.6423 34.9286H2.41926C2.45675 32.568 2.76998 27.3531 4.5998 23.9319L13.7102 28.239C14.1479 30.6553 15.0811 32.9393 16.4434 34.9286H13.848Z" fill="#36B864"/>
<path d="M29.5879 19V5.125H35.5691C36.7316 5.125 37.7004 5.35 38.4754 5.8C39.2504 6.25 39.8254 6.83125 40.2004 7.54375C40.5879 8.25625 40.7816 9 40.7816 9.775C40.7816 10.5625 40.5879 11.3125 40.2004 12.025C39.8254 12.7375 39.2504 13.325 38.4754 13.7875C37.7004 14.2375 36.7316 14.4625 35.5691 14.4625H32.8316V19H29.5879ZM35.5504 7.95625H32.8316V11.65H35.5504C36.2129 11.65 36.7066 11.4562 37.0316 11.0687C37.3566 10.6812 37.5191 10.2562 37.5191 9.79375C37.5191 9.33125 37.3566 8.9125 37.0316 8.5375C36.7066 8.15 36.2129 7.95625 35.5504 7.95625ZM42.3459 19V9.0625H45.5147V10.5625H45.6272C45.7272 10.3 45.8709 10.0437 46.0584 9.79375C46.2584 9.53125 46.5334 9.3125 46.8834 9.1375C47.2334 8.9625 47.6959 8.875 48.2709 8.875C48.5459 8.875 48.7647 8.89375 48.9272 8.93125C49.0897 8.96875 49.1709 8.9875 49.1709 8.9875V12.1562C49.1709 12.1562 49.0834 12.1375 48.9084 12.1C48.7334 12.0625 48.4897 12.0437 48.1772 12.0437C47.2897 12.0437 46.6272 12.2812 46.1897 12.7562C45.7647 13.2312 45.5522 14.0062 45.5522 15.0812V19H42.3459ZM55.5231 19.1875C54.3981 19.1875 53.4418 18.95 52.6543 18.475C51.8668 18 51.2606 17.3687 50.8356 16.5812C50.4231 15.7937 50.2168 14.9437 50.2168 14.0312C50.2168 13.1187 50.4231 12.2687 50.8356 11.4812C51.2606 10.6937 51.8668 10.0625 52.6543 9.5875C53.4418 9.1125 54.3981 8.875 55.5231 8.875C56.6606 8.875 57.6231 9.1125 58.4106 9.5875C59.1981 10.0625 59.7981 10.6937 60.2106 11.4812C60.6356 12.2687 60.8481 13.1187 60.8481 14.0312C60.8481 14.9437 60.6356 15.7937 60.2106 16.5812C59.7981 17.3687 59.1981 18 58.4106 18.475C57.6231 18.95 56.6606 19.1875 55.5231 19.1875ZM55.5231 16.6C56.1856 16.6 56.6981 16.35 57.0606 15.85C57.4356 15.3375 57.6231 14.7312 57.6231 14.0312C57.6231 13.3312 57.4356 12.7312 57.0606 12.2312C56.6981 11.7187 56.1856 11.4625 55.5231 11.4625C54.8731 11.4625 54.3606 11.7187 53.9856 12.2312C53.6106 12.7312 53.4231 13.3312 53.4231 14.0312C53.4231 14.7312 53.6106 15.3375 53.9856 15.85C54.3606 16.35 54.8731 16.6 55.5231 16.6Z" fill="#36B864"/>
<path d="M69.3077 19.1875C68.1577 19.1875 67.1452 18.9875 66.2702 18.5875C65.3952 18.175 64.664 17.6312 64.0765 16.9562C63.5015 16.2687 63.064 15.5 62.764 14.65C62.4765 13.8 62.3327 12.9312 62.3327 12.0437C62.3327 11.1687 62.4765 10.3062 62.764 9.45625C63.064 8.60625 63.5015 7.84375 64.0765 7.16875C64.664 6.49375 65.3952 5.95625 66.2702 5.55625C67.1452 5.14375 68.1577 4.9375 69.3077 4.9375C70.2952 4.9375 71.1327 5.0625 71.8202 5.3125C72.5202 5.55 73.1015 5.86875 73.564 6.26875C74.039 6.65625 74.414 7.06875 74.689 7.50625C74.9765 7.93125 75.189 8.3375 75.3265 8.725C75.464 9.1125 75.5515 9.43125 75.589 9.68125C75.639 9.93125 75.664 10.0562 75.664 10.0562H72.4577C72.4577 10.0562 72.4202 9.94375 72.3452 9.71875C72.2827 9.49375 72.1452 9.2375 71.9327 8.95C71.7327 8.65 71.4265 8.3875 71.014 8.1625C70.6015 7.9375 70.0452 7.825 69.3452 7.825C68.5327 7.825 67.8515 8.03125 67.3015 8.44375C66.764 8.85625 66.3577 9.3875 66.0827 10.0375C65.8202 10.675 65.689 11.3437 65.689 12.0437C65.689 12.7437 65.8202 13.4187 66.0827 14.0687C66.3577 14.7187 66.764 15.25 67.3015 15.6625C67.8515 16.075 68.5327 16.2812 69.3452 16.2812C70.0452 16.2812 70.6015 16.1687 71.014 15.9437C71.4265 15.7187 71.7327 15.4625 71.9327 15.175C72.1452 14.8875 72.2827 14.6312 72.3452 14.4062C72.4202 14.1812 72.4577 14.0687 72.4577 14.0687H75.664C75.664 14.0687 75.639 14.1937 75.589 14.4437C75.5515 14.6812 75.464 15 75.3265 15.4C75.189 15.7875 74.9765 16.2 74.689 16.6375C74.414 17.0625 74.039 17.475 73.564 17.875C73.1015 18.2625 72.5202 18.5812 71.8202 18.8312C71.1327 19.0688 70.2952 19.1875 69.3077 19.1875ZM77.5249 19V4.75H80.7311V19H77.5249ZM87.8752 19.1875C86.9877 19.1875 86.2189 19.0438 85.5689 18.7562C84.9189 18.4562 84.3752 18.0625 83.9377 17.575C83.5127 17.075 83.1939 16.5187 82.9814 15.9062C82.7814 15.2937 82.6814 14.6625 82.6814 14.0125C82.6814 13.3875 82.7814 12.7687 82.9814 12.1562C83.1814 11.5437 83.4877 10.9937 83.9002 10.5062C84.3127 10.0062 84.8377 9.6125 85.4752 9.325C86.1252 9.025 86.8939 8.875 87.7814 8.875C88.7314 8.875 89.5627 9.08125 90.2752 9.49375C91.0002 9.89375 91.5627 10.4875 91.9627 11.275C92.3752 12.05 92.5814 12.9937 92.5814 14.1062V14.8562H85.9064C85.9439 15.3687 86.1252 15.8187 86.4502 16.2062C86.7877 16.5812 87.2627 16.7687 87.8752 16.7687C88.3377 16.7687 88.6877 16.6875 88.9252 16.525C89.1752 16.35 89.3439 16.175 89.4314 16C89.5189 15.825 89.5627 15.7375 89.5627 15.7375H92.5064C92.5064 15.7375 92.4752 15.8562 92.4127 16.0937C92.3502 16.3187 92.2314 16.6062 92.0564 16.9562C91.8814 17.2937 91.6252 17.6375 91.2877 17.9875C90.9502 18.325 90.5002 18.6125 89.9377 18.85C89.3877 19.075 88.7002 19.1875 87.8752 19.1875ZM85.8877 13H89.5064C89.4814 12.4125 89.3002 11.9687 88.9627 11.6687C88.6377 11.3687 88.2252 11.2187 87.7252 11.2187C87.2377 11.2187 86.8189 11.3687 86.4689 11.6687C86.1314 11.9687 85.9377 12.4125 85.8877 13ZM98.6028 8.875C99.2528 8.875 99.7778 8.98125 100.178 9.19375C100.59 9.40625 100.897 9.625 101.097 9.85C101.309 10.0625 101.428 10.1937 101.453 10.2437H101.603V9.0625H104.809V19H101.603V17.8187H101.453C101.428 17.8687 101.309 18.0062 101.097 18.2312C100.897 18.4562 100.59 18.675 100.178 18.8875C99.7778 19.0875 99.2528 19.1875 98.6028 19.1875C97.8778 19.1875 97.2466 19.0438 96.7091 18.7562C96.1716 18.4562 95.7216 18.0625 95.3591 17.575C94.9966 17.075 94.7278 16.5187 94.5528 15.9062C94.3778 15.2937 94.2903 14.6687 94.2903 14.0312C94.2903 13.3937 94.3778 12.7687 94.5528 12.1562C94.7278 11.5437 94.9966 10.9937 95.3591 10.5062C95.7216 10.0062 96.1716 9.6125 96.7091 9.325C97.2466 9.025 97.8778 8.875 98.6028 8.875ZM99.6153 11.4437C99.1528 11.4437 98.7653 11.575 98.4528 11.8375C98.1403 12.0875 97.9091 12.4125 97.7591 12.8125C97.6091 13.2 97.5341 13.6062 97.5341 14.0312C97.5341 14.4562 97.6091 14.8687 97.7591 15.2687C97.9091 15.6562 98.1403 15.9812 98.4528 16.2438C98.7653 16.4937 99.1528 16.6187 99.6153 16.6187C100.078 16.6187 100.459 16.4937 100.759 16.2438C101.072 15.9812 101.303 15.6562 101.453 15.2687C101.615 14.8687 101.697 14.4562 101.697 14.0312C101.697 13.6062 101.615 13.2 101.453 12.8125C101.303 12.4125 101.072 12.0875 100.759 11.8375C100.459 11.575 100.078 11.4437 99.6153 11.4437ZM106.909 19V9.0625H110.115V10.4687H110.209C110.334 10.2687 110.503 10.0437 110.715 9.79375C110.94 9.54375 111.234 9.33125 111.596 9.15625C111.971 8.96875 112.434 8.875 112.984 8.875C113.784 8.875 114.421 9.05625 114.896 9.41875C115.384 9.78125 115.734 10.2437 115.946 10.8062C116.159 11.3562 116.265 11.925 116.265 12.5125V19H113.059V13.1125C113.059 12.6875 112.946 12.3125 112.721 11.9875C112.496 11.65 112.128 11.4812 111.615 11.4812C111.053 11.4812 110.659 11.6687 110.434 12.0437C110.221 12.4062 110.115 12.8062 110.115 13.2437V19H106.909ZM120.154 7.88125C119.617 7.88125 119.173 7.70625 118.823 7.35625C118.473 7.00625 118.298 6.59375 118.298 6.11875C118.298 5.61875 118.473 5.19375 118.823 4.84375C119.173 4.49375 119.617 4.31875 120.154 4.31875C120.692 4.31875 121.136 4.49375 121.486 4.84375C121.836 5.19375 122.011 5.61875 122.011 6.11875C122.011 6.59375 121.836 7.00625 121.486 7.35625C121.136 7.70625 120.692 7.88125 120.154 7.88125ZM118.542 19V9.0625H121.748V19H118.542ZM124.029 19V9.0625H127.236V10.4687H127.329C127.454 10.2687 127.623 10.0437 127.836 9.79375C128.061 9.54375 128.354 9.33125 128.717 9.15625C129.092 8.96875 129.554 8.875 130.104 8.875C130.904 8.875 131.542 9.05625 132.017 9.41875C132.504 9.78125 132.854 10.2437 133.067 10.8062C133.279 11.3562 133.386 11.925 133.386 12.5125V19H130.179V13.1125C130.179 12.6875 130.067 12.3125 129.842 11.9875C129.617 11.65 129.248 11.4812 128.736 11.4812C128.173 11.4812 127.779 11.6687 127.554 12.0437C127.342 12.4062 127.236 12.8062 127.236 13.2437V19H124.029ZM140.466 22.9938C139.528 22.9938 138.753 22.875 138.141 22.6375C137.528 22.4125 137.041 22.125 136.678 21.775C136.328 21.4375 136.072 21.0938 135.909 20.7438C135.747 20.4063 135.641 20.1188 135.591 19.8813C135.553 19.6563 135.534 19.5438 135.534 19.5438H138.628C138.628 19.5438 138.666 19.625 138.741 19.7875C138.828 19.95 138.997 20.1125 139.247 20.275C139.509 20.45 139.903 20.5375 140.428 20.5375C141.103 20.5375 141.616 20.3438 141.966 19.9563C142.328 19.5688 142.509 19.0313 142.509 18.3437V17.3125H142.359C142.234 17.5125 142.047 17.725 141.797 17.95C141.559 18.175 141.253 18.3687 140.878 18.5312C140.503 18.6812 140.053 18.7562 139.528 18.7562C138.803 18.7562 138.166 18.6187 137.616 18.3437C137.078 18.0687 136.622 17.6937 136.247 17.2187C135.884 16.7437 135.609 16.2125 135.422 15.625C135.247 15.0375 135.159 14.4375 135.159 13.825C135.159 13.2 135.247 12.5937 135.422 12.0062C135.609 11.4187 135.884 10.8937 136.247 10.4312C136.622 9.95625 137.078 9.58125 137.616 9.30625C138.166 9.01875 138.803 8.875 139.528 8.875C140.053 8.875 140.503 8.95625 140.878 9.11875C141.253 9.26875 141.566 9.45625 141.816 9.68125C142.066 9.90625 142.247 10.1187 142.359 10.3187H142.509V9.0625H145.716V18.3437C145.716 19.1438 145.528 19.8938 145.153 20.5938C144.791 21.3063 144.222 21.8813 143.447 22.3188C142.684 22.7688 141.691 22.9938 140.466 22.9938ZM140.484 16.2625C140.959 16.2625 141.353 16.1437 141.666 15.9062C141.978 15.6687 142.209 15.3625 142.359 14.9875C142.522 14.6125 142.603 14.225 142.603 13.825C142.603 13.4 142.522 13.0062 142.359 12.6437C142.209 12.2687 141.978 11.9625 141.666 11.725C141.353 11.4875 140.959 11.3687 140.484 11.3687C140.022 11.3687 139.634 11.4875 139.322 11.725C139.009 11.9625 138.772 12.2687 138.609 12.6437C138.447 13.0062 138.366 13.4 138.366 13.825C138.366 14.225 138.447 14.6125 138.609 14.9875C138.772 15.3625 139.009 15.6687 139.322 15.9062C139.634 16.1437 140.022 16.2625 140.484 16.2625Z" fill="#111D15"/>
<path d="M32.0329 35.7068C31.5109 35.7068 31.0519 35.6108 30.6559 35.4188C30.2599 35.2208 29.9299 34.9598 29.6659 34.6358C29.4079 34.3058 29.2129 33.9398 29.0809 33.5378C28.9489 33.1298 28.8829 32.7128 28.8829 32.2868C28.8829 31.8608 28.9489 31.4438 29.0809 31.0358C29.2129 30.6278 29.4079 30.2618 29.6659 29.9378C29.9299 29.6078 30.2599 29.3468 30.6559 29.1548C31.0519 28.9628 31.5109 28.8668 32.0329 28.8668C32.4649 28.8668 32.8339 28.9238 33.1399 29.0378C33.4519 29.1458 33.7099 29.2868 33.9139 29.4608C34.1239 29.6348 34.2919 29.8208 34.4179 30.0188C34.5499 30.2168 34.6459 30.4028 34.7059 30.5768C34.7719 30.7508 34.8139 30.8948 34.8319 31.0088C34.8559 31.1168 34.8679 31.1708 34.8679 31.1708H33.9859C33.9859 31.1708 33.9739 31.1228 33.9499 31.0268C33.9259 30.9248 33.8779 30.8018 33.8059 30.6578C33.7339 30.5078 33.6259 30.3578 33.4819 30.2078C33.3379 30.0578 33.1489 29.9348 32.9149 29.8388C32.6809 29.7368 32.3899 29.6858 32.0419 29.6858C31.6639 29.6858 31.3339 29.7608 31.0519 29.9108C30.7699 30.0548 30.5329 30.2528 30.3409 30.5048C30.1549 30.7508 30.0139 31.0298 29.9179 31.3418C29.8279 31.6478 29.7829 31.9628 29.7829 32.2868C29.7829 32.6108 29.8279 32.9288 29.9179 33.2408C30.0139 33.5468 30.1549 33.8258 30.3409 34.0778C30.5329 34.3238 30.7699 34.5218 31.0519 34.6718C31.3339 34.8158 31.6639 34.8878 32.0419 34.8878C32.3899 34.8878 32.6809 34.8368 32.9149 34.7348C33.1489 34.6328 33.3379 34.5098 33.4819 34.3658C33.6259 34.2158 33.7339 34.0688 33.8059 33.9248C33.8779 33.7748 33.9259 33.6488 33.9499 33.5468C33.9739 33.4448 33.9859 33.3938 33.9859 33.3938H34.8679C34.8679 33.3938 34.8559 33.4508 34.8319 33.5648C34.8139 33.6728 34.7719 33.8168 34.7059 33.9968C34.6459 34.1708 34.5499 34.3568 34.4179 34.5548C34.2919 34.7468 34.1239 34.9328 33.9139 35.1128C33.7099 35.2868 33.4519 35.4308 33.1399 35.5448C32.8339 35.6528 32.4649 35.7068 32.0329 35.7068ZM36.0864 35.6168L36.0954 28.7768H36.9414V35.6168H36.0864ZM40.4593 35.7068C40.0693 35.7068 39.7303 35.6378 39.4423 35.4998C39.1603 35.3558 38.9263 35.1638 38.7403 34.9238C38.5603 34.6838 38.4253 34.4198 38.3353 34.1318C38.2453 33.8378 38.2003 33.5378 38.2003 33.2318C38.2003 32.9318 38.2423 32.6348 38.3263 32.3408C38.4163 32.0468 38.5513 31.7798 38.7313 31.5398C38.9173 31.2998 39.1483 31.1108 39.4243 30.9728C39.7063 30.8288 40.0393 30.7568 40.4233 30.7568C40.8313 30.7568 41.1913 30.8498 41.5033 31.0358C41.8153 31.2218 42.0613 31.4978 42.2413 31.8638C42.4213 32.2298 42.5113 32.6888 42.5113 33.2408V33.4928H39.0643C39.0823 33.7628 39.1453 34.0118 39.2533 34.2398C39.3673 34.4618 39.5263 34.6418 39.7303 34.7798C39.9343 34.9118 40.1773 34.9778 40.4593 34.9778C40.7053 34.9778 40.9033 34.9388 41.0533 34.8608C41.2093 34.7768 41.3323 34.6808 41.4223 34.5728C41.5123 34.4648 41.5723 34.3718 41.6023 34.2938C41.6383 34.2098 41.6563 34.1678 41.6563 34.1678H42.4573C42.4573 34.1678 42.4423 34.2218 42.4123 34.3298C42.3823 34.4318 42.3283 34.5578 42.2503 34.7078C42.1723 34.8578 42.0583 35.0108 41.9083 35.1668C41.7583 35.3168 41.5663 35.4458 41.3323 35.5538C41.0983 35.6558 40.8073 35.7068 40.4593 35.7068ZM39.0733 32.8268H41.6743C41.6623 32.5148 41.5963 32.2628 41.4763 32.0708C41.3563 31.8728 41.2033 31.7258 41.0173 31.6298C40.8313 31.5338 40.6333 31.4858 40.4233 31.4858C40.0453 31.4858 39.7363 31.6088 39.4963 31.8548C39.2563 32.0948 39.1153 32.4188 39.0733 32.8268ZM45.7041 30.7568C46.0041 30.7568 46.2561 30.8048 46.4601 30.9008C46.6641 30.9968 46.8291 31.1108 46.9551 31.2428C47.0811 31.3688 47.1771 31.4888 47.2431 31.6028H47.2971V30.8468H48.1521V35.6168H47.2971V34.8608H47.2431C47.1771 34.9748 47.0811 35.0978 46.9551 35.2298C46.8291 35.3618 46.6641 35.4758 46.4601 35.5718C46.2561 35.6618 46.0041 35.7068 45.7041 35.7068C45.3441 35.7068 45.0291 35.6378 44.7591 35.4998C44.4891 35.3558 44.2641 35.1668 44.0841 34.9328C43.9041 34.6928 43.7691 34.4258 43.6791 34.1318C43.5891 33.8378 43.5441 33.5378 43.5441 33.2318C43.5441 32.9258 43.5891 32.6258 43.6791 32.3318C43.7691 32.0378 43.9041 31.7738 44.0841 31.5398C44.2641 31.2998 44.4891 31.1108 44.7591 30.9728C45.0291 30.8288 45.3441 30.7568 45.7041 30.7568ZM45.8481 31.4858C45.5301 31.4858 45.2631 31.5728 45.0471 31.7468C44.8311 31.9148 44.6691 32.1308 44.5611 32.3948C44.4591 32.6588 44.4081 32.9378 44.4081 33.2318C44.4081 33.5198 44.4591 33.7988 44.5611 34.0688C44.6691 34.3328 44.8311 34.5518 45.0471 34.7258C45.2631 34.8938 45.5301 34.9778 45.8481 34.9778C46.1661 34.9778 46.4301 34.8938 46.6401 34.7258C46.8561 34.5518 47.0151 34.3328 47.1171 34.0688C47.2251 33.7988 47.2791 33.5198 47.2791 33.2318C47.2791 32.9378 47.2251 32.6588 47.1171 32.3948C47.0151 32.1308 46.8561 31.9148 46.6401 31.7468C46.4301 31.5728 46.1661 31.4858 45.8481 31.4858ZM49.4085 35.6168V30.8468H50.2635V31.5398H50.3175C50.3595 31.4678 50.4285 31.3688 50.5245 31.2428C50.6265 31.1168 50.7705 31.0058 50.9565 30.9098C51.1425 30.8078 51.3765 30.7568 51.6585 30.7568C52.0065 30.7568 52.3035 30.8378 52.5495 30.9998C52.7955 31.1558 52.9815 31.3688 53.1075 31.6388C53.2395 31.9088 53.3055 32.2118 53.3055 32.5478V35.6168H52.4505V32.6018C52.4505 32.2838 52.3605 32.0198 52.1805 31.8098C52.0065 31.5998 51.7515 31.4948 51.4155 31.4948C51.1455 31.4948 50.9265 31.5638 50.7585 31.7018C50.5905 31.8338 50.4645 32.0108 50.3805 32.2328C50.3025 32.4488 50.2635 32.6798 50.2635 32.9258V35.6168H49.4085ZM55.1257 29.9378C54.9637 29.9378 54.8287 29.8838 54.7207 29.7758C54.6187 29.6678 54.5677 29.5388 54.5677 29.3888C54.5677 29.2328 54.6187 29.1008 54.7207 28.9928C54.8287 28.8848 54.9637 28.8308 55.1257 28.8308C55.2817 28.8308 55.4137 28.8848 55.5217 28.9928C55.6297 29.1008 55.6837 29.2328 55.6837 29.3888C55.6837 29.5388 55.6297 29.6678 55.5217 29.7758C55.4137 29.8838 55.2817 29.9378 55.1257 29.9378ZM54.7027 35.6168V30.8468H55.5577V35.6168H54.7027ZM56.9407 35.6168V30.8468H57.7957V31.5398H57.8497C57.8917 31.4678 57.9607 31.3688 58.0567 31.2428C58.1587 31.1168 58.3027 31.0058 58.4887 30.9098C58.6747 30.8078 58.9087 30.7568 59.1907 30.7568C59.5387 30.7568 59.8357 30.8378 60.0817 30.9998C60.3277 31.1558 60.5137 31.3688 60.6397 31.6388C60.7717 31.9088 60.8377 32.2118 60.8377 32.5478V35.6168H59.9827V32.6018C59.9827 32.2838 59.8927 32.0198 59.7127 31.8098C59.5387 31.5998 59.2837 31.4948 58.9477 31.4948C58.6777 31.4948 58.4587 31.5638 58.2907 31.7018C58.1227 31.8338 57.9967 32.0108 57.9127 32.2328C57.8347 32.4488 57.7957 32.6798 57.7957 32.9258V35.6168H56.9407ZM64.3949 37.5068C63.9989 37.5068 63.6689 37.4528 63.4049 37.3448C63.1409 37.2428 62.9279 37.1108 62.7659 36.9488C62.6099 36.7928 62.4929 36.6368 62.4149 36.4808C62.3369 36.3248 62.2859 36.1928 62.2619 36.0848C62.2379 35.9828 62.2259 35.9318 62.2259 35.9318H63.0809C63.0809 35.9318 63.0959 35.9738 63.1259 36.0578C63.1559 36.1418 63.2129 36.2378 63.2969 36.3458C63.3869 36.4538 63.5189 36.5498 63.6929 36.6338C63.8669 36.7178 64.1009 36.7598 64.3949 36.7598C64.7429 36.7598 65.0159 36.6908 65.2139 36.5528C65.4119 36.4208 65.5529 36.2468 65.6369 36.0308C65.7269 35.8148 65.7719 35.5868 65.7719 35.3468V34.7978H65.7269C65.6669 34.8998 65.5709 35.0168 65.4389 35.1488C65.3129 35.2748 65.1449 35.3858 64.9349 35.4818C64.7249 35.5718 64.4669 35.6168 64.1609 35.6168C63.8009 35.6168 63.4859 35.5478 63.2159 35.4098C62.9459 35.2718 62.7209 35.0858 62.5409 34.8518C62.3669 34.6178 62.2349 34.3568 62.1449 34.0688C62.0549 33.7808 62.0099 33.4868 62.0099 33.1868C62.0099 32.8868 62.0549 32.5928 62.1449 32.3048C62.2349 32.0168 62.3669 31.7558 62.5409 31.5218C62.7209 31.2878 62.9459 31.1018 63.2159 30.9638C63.4859 30.8258 63.8009 30.7568 64.1609 30.7568C64.4669 30.7568 64.7249 30.8048 64.9349 30.9008C65.1449 30.9908 65.3129 31.0988 65.4389 31.2248C65.5709 31.3508 65.6669 31.4678 65.7269 31.5758H65.7719V30.8468H66.6269V35.3378C66.6269 36.0038 66.4319 36.5318 66.0419 36.9218C65.6579 37.3118 65.1089 37.5068 64.3949 37.5068ZM64.3229 34.8878C64.6409 34.8878 64.9049 34.8068 65.1149 34.6448C65.3309 34.4768 65.4899 34.2638 65.5919 34.0058C65.6999 33.7478 65.7539 33.4748 65.7539 33.1868C65.7539 32.8988 65.6999 32.6258 65.5919 32.3678C65.4899 32.1038 65.3309 31.8908 65.1149 31.7288C64.9049 31.5668 64.6409 31.4858 64.3229 31.4858C64.0049 31.4858 63.7379 31.5668 63.5219 31.7288C63.3059 31.8908 63.1439 32.1038 63.0359 32.3678C62.9339 32.6258 62.8829 32.8988 62.8829 33.1868C62.8829 33.4748 62.9339 33.7478 63.0359 34.0058C63.1439 34.2638 63.3059 34.4768 63.5219 34.6448C63.7379 34.8068 64.0049 34.8878 64.3229 34.8878ZM72.2793 35.7068C71.8953 35.7068 71.5653 35.6588 71.2893 35.5628C71.0193 35.4608 70.7943 35.3318 70.6143 35.1758C70.4343 35.0138 70.2903 34.8458 70.1823 34.6718C70.0743 34.4978 69.9933 34.3328 69.9393 34.1768C69.8853 34.0148 69.8493 33.8858 69.8313 33.7898C69.8193 33.6878 69.8133 33.6368 69.8133 33.6368H70.7133C70.7133 33.6368 70.7223 33.6788 70.7403 33.7628C70.7583 33.8468 70.7943 33.9518 70.8483 34.0778C70.9083 34.2038 70.9953 34.3328 71.1093 34.4648C71.2233 34.5908 71.3763 34.6958 71.5683 34.7798C71.7603 34.8638 72.0033 34.9058 72.2973 34.9058C72.7413 34.9058 73.0923 34.8008 73.3503 34.5908C73.6083 34.3748 73.7373 34.0958 73.7373 33.7538C73.7373 33.4598 73.6383 33.2318 73.4403 33.0698C73.2483 32.9078 72.9723 32.7818 72.6123 32.6918L71.7303 32.4758C71.4183 32.3978 71.1273 32.2898 70.8573 32.1518C70.5933 32.0078 70.3803 31.8218 70.2183 31.5938C70.0623 31.3598 69.9843 31.0688 69.9843 30.7208C69.9843 30.3308 70.0803 29.9978 70.2723 29.7218C70.4643 29.4458 70.7253 29.2358 71.0553 29.0918C71.3853 28.9418 71.7603 28.8668 72.1803 28.8668C72.5883 28.8668 72.9273 28.9298 73.1973 29.0558C73.4673 29.1818 73.6833 29.3378 73.8453 29.5238C74.0073 29.7038 74.1273 29.8868 74.2053 30.0728C74.2833 30.2528 74.3343 30.4058 74.3583 30.5318C74.3823 30.6578 74.3943 30.7208 74.3943 30.7208H73.5303C73.5303 30.7208 73.5183 30.6668 73.4943 30.5588C73.4703 30.4508 73.4133 30.3278 73.3233 30.1898C73.2333 30.0458 73.0953 29.9198 72.9093 29.8118C72.7233 29.7038 72.4713 29.6498 72.1533 29.6498C71.7213 29.6498 71.3943 29.7518 71.1723 29.9558C70.9563 30.1598 70.8483 30.3938 70.8483 30.6578C70.8483 30.8978 70.9353 31.0928 71.1093 31.2428C71.2833 31.3868 71.5233 31.4978 71.8293 31.5758L72.7833 31.8098C73.1253 31.8938 73.4343 32.0168 73.7103 32.1788C73.9863 32.3348 74.2053 32.5388 74.3673 32.7908C74.5293 33.0368 74.6103 33.3398 74.6103 33.6998C74.6103 34.0598 74.5203 34.3928 74.3403 34.6988C74.1663 35.0048 73.9053 35.2508 73.5573 35.4368C73.2153 35.6168 72.7893 35.7068 72.2793 35.7068ZM77.8392 35.7068C77.4492 35.7068 77.1102 35.6378 76.8222 35.4998C76.5402 35.3558 76.3062 35.1638 76.1202 34.9238C75.9402 34.6838 75.8052 34.4198 75.7152 34.1318C75.6252 33.8378 75.5802 33.5378 75.5802 33.2318C75.5802 32.9318 75.6222 32.6348 75.7062 32.3408C75.7962 32.0468 75.9312 31.7798 76.1112 31.5398C76.2972 31.2998 76.5282 31.1108 76.8042 30.9728C77.0862 30.8288 77.4192 30.7568 77.8032 30.7568C78.2112 30.7568 78.5712 30.8498 78.8832 31.0358C79.1952 31.2218 79.4412 31.4978 79.6212 31.8638C79.8012 32.2298 79.8912 32.6888 79.8912 33.2408V33.4928H76.4442C76.4622 33.7628 76.5252 34.0118 76.6332 34.2398C76.7472 34.4618 76.9062 34.6418 77.1102 34.7798C77.3142 34.9118 77.5572 34.9778 77.8392 34.9778C78.0852 34.9778 78.2832 34.9388 78.4332 34.8608C78.5892 34.7768 78.7122 34.6808 78.8022 34.5728C78.8922 34.4648 78.9522 34.3718 78.9822 34.2938C79.0182 34.2098 79.0362 34.1678 79.0362 34.1678H79.8372C79.8372 34.1678 79.8222 34.2218 79.7922 34.3298C79.7622 34.4318 79.7082 34.5578 79.6302 34.7078C79.5522 34.8578 79.4382 35.0108 79.2882 35.1668C79.1382 35.3168 78.9462 35.4458 78.7122 35.5538C78.4782 35.6558 78.1872 35.7068 77.8392 35.7068ZM76.4532 32.8268H79.0542C79.0422 32.5148 78.9762 32.2628 78.8562 32.0708C78.7362 31.8728 78.5832 31.7258 78.3972 31.6298C78.2112 31.5338 78.0132 31.4858 77.8032 31.4858C77.4252 31.4858 77.1162 31.6088 76.8762 31.8548C76.6362 32.0948 76.4952 32.4188 76.4532 32.8268ZM81.0579 35.6168V30.8468H81.9129V31.4408H81.9489C82.0509 31.2608 82.2009 31.1018 82.3989 30.9638C82.5969 30.8258 82.8759 30.7568 83.2359 30.7568C83.3379 30.7568 83.4309 30.7628 83.5149 30.7748C83.5989 30.7808 83.6409 30.7838 83.6409 30.7838V31.6028C83.6409 31.6028 83.5929 31.5998 83.4969 31.5938C83.4069 31.5818 83.3109 31.5758 83.2089 31.5758C82.7949 31.5758 82.4739 31.6958 82.2459 31.9358C82.0239 32.1698 81.9129 32.5538 81.9129 33.0878V35.6168H81.0579ZM86.0853 35.6168L84.2673 30.8468H85.1583L86.5533 34.5728L87.9213 30.8468H88.8213L86.9943 35.6168H86.0853ZM90.3259 29.9378C90.1639 29.9378 90.0289 29.8838 89.9209 29.7758C89.8189 29.6678 89.7679 29.5388 89.7679 29.3888C89.7679 29.2328 89.8189 29.1008 89.9209 28.9928C90.0289 28.8848 90.1639 28.8308 90.3259 28.8308C90.4819 28.8308 90.6139 28.8848 90.7219 28.9928C90.8299 29.1008 90.8839 29.2328 90.8839 29.3888C90.8839 29.5388 90.8299 29.6678 90.7219 29.7758C90.6139 29.8838 90.4819 29.9378 90.3259 29.9378ZM89.9029 35.6168V30.8468H90.7579V35.6168H89.9029ZM94.3999 35.7068C94.0099 35.7068 93.6679 35.6378 93.3739 35.4998C93.0799 35.3558 92.8339 35.1668 92.6359 34.9328C92.4439 34.6928 92.2969 34.4258 92.1949 34.1318C92.0989 33.8378 92.0509 33.5378 92.0509 33.2318C92.0509 32.9258 92.0989 32.6288 92.1949 32.3408C92.2909 32.0468 92.4349 31.7798 92.6269 31.5398C92.8249 31.2998 93.0709 31.1108 93.3649 30.9728C93.6589 30.8288 94.0039 30.7568 94.3999 30.7568C94.7839 30.7568 95.1019 30.8138 95.3539 30.9278C95.6059 31.0418 95.8069 31.1858 95.9569 31.3598C96.1129 31.5278 96.2269 31.6988 96.2989 31.8728C96.3769 32.0408 96.4279 32.1818 96.4519 32.2958C96.4759 32.4098 96.4879 32.4668 96.4879 32.4668H95.6599C95.6599 32.4668 95.6449 32.4188 95.6149 32.3228C95.5849 32.2208 95.5279 32.1068 95.4439 31.9808C95.3599 31.8548 95.2339 31.7438 95.0659 31.6478C94.8979 31.5458 94.6759 31.4948 94.3999 31.4948C94.0699 31.4948 93.7909 31.5788 93.5629 31.7468C93.3409 31.9088 93.1729 32.1218 93.0589 32.3858C92.9509 32.6498 92.8969 32.9318 92.8969 33.2318C92.8969 33.5318 92.9509 33.8138 93.0589 34.0778C93.1729 34.3418 93.3409 34.5578 93.5629 34.7258C93.7909 34.8878 94.0699 34.9688 94.3999 34.9688C94.6759 34.9688 94.8979 34.9208 95.0659 34.8248C95.2339 34.7228 95.3599 34.6088 95.4439 34.4828C95.5279 34.3568 95.5849 34.2458 95.6149 34.1498C95.6449 34.0478 95.6599 33.9968 95.6599 33.9968H96.4879C96.4879 33.9968 96.4759 34.0538 96.4519 34.1678C96.4279 34.2818 96.3769 34.4258 96.2989 34.5998C96.2269 34.7678 96.1129 34.9388 95.9569 35.1128C95.8069 35.2808 95.6059 35.4218 95.3539 35.5358C95.1019 35.6498 94.7839 35.7068 94.3999 35.7068ZM99.8295 35.7068C99.4395 35.7068 99.1005 35.6378 98.8125 35.4998C98.5305 35.3558 98.2965 35.1638 98.1105 34.9238C97.9305 34.6838 97.7955 34.4198 97.7055 34.1318C97.6155 33.8378 97.5705 33.5378 97.5705 33.2318C97.5705 32.9318 97.6125 32.6348 97.6965 32.3408C97.7865 32.0468 97.9215 31.7798 98.1015 31.5398C98.2875 31.2998 98.5185 31.1108 98.7945 30.9728C99.0765 30.8288 99.4095 30.7568 99.7935 30.7568C100.201 30.7568 100.561 30.8498 100.873 31.0358C101.185 31.2218 101.431 31.4978 101.611 31.8638C101.791 32.2298 101.881 32.6888 101.881 33.2408V33.4928H98.4345C98.4525 33.7628 98.5155 34.0118 98.6235 34.2398C98.7375 34.4618 98.8965 34.6418 99.1005 34.7798C99.3045 34.9118 99.5475 34.9778 99.8295 34.9778C100.075 34.9778 100.273 34.9388 100.423 34.8608C100.579 34.7768 100.702 34.6808 100.792 34.5728C100.882 34.4648 100.942 34.3718 100.972 34.2938C101.008 34.2098 101.026 34.1678 101.026 34.1678H101.827C101.827 34.1678 101.812 34.2218 101.782 34.3298C101.752 34.4318 101.698 34.5578 101.62 34.7078C101.542 34.8578 101.428 35.0108 101.278 35.1668C101.128 35.3168 100.936 35.4458 100.702 35.5538C100.468 35.6558 100.177 35.7068 99.8295 35.7068ZM98.4435 32.8268H101.044C101.032 32.5148 100.966 32.2628 100.846 32.0708C100.726 31.8728 100.573 31.7258 100.387 31.6298C100.201 31.5338 100.003 31.4858 99.7935 31.4858C99.4155 31.4858 99.1065 31.6088 98.8665 31.8548C98.6265 32.0948 98.4855 32.4188 98.4435 32.8268ZM104.794 35.7068C104.428 35.7068 104.125 35.6558 103.885 35.5538C103.651 35.4518 103.465 35.3258 103.327 35.1758C103.189 35.0198 103.087 34.8668 103.021 34.7168C102.955 34.5608 102.913 34.4318 102.895 34.3298C102.877 34.2278 102.868 34.1768 102.868 34.1768H103.732C103.732 34.1768 103.741 34.2188 103.759 34.3028C103.783 34.3808 103.828 34.4738 103.894 34.5818C103.966 34.6838 104.074 34.7768 104.218 34.8608C104.368 34.9388 104.566 34.9778 104.812 34.9778C105.094 34.9778 105.313 34.9118 105.469 34.7798C105.625 34.6418 105.703 34.4738 105.703 34.2758C105.703 34.1018 105.64 33.9638 105.514 33.8618C105.394 33.7598 105.22 33.6818 104.992 33.6278L104.344 33.4748C104.104 33.4148 103.879 33.3338 103.669 33.2318C103.459 33.1298 103.288 32.9918 103.156 32.8178C103.03 32.6378 102.967 32.4158 102.967 32.1518C102.967 31.7438 103.12 31.4108 103.426 31.1528C103.732 30.8888 104.131 30.7568 104.623 30.7568C104.953 30.7568 105.226 30.8048 105.442 30.9008C105.658 30.9908 105.829 31.1048 105.955 31.2428C106.087 31.3808 106.183 31.5188 106.243 31.6568C106.309 31.7948 106.351 31.9118 106.369 32.0078C106.387 32.0978 106.396 32.1428 106.396 32.1428H105.568C105.568 32.1428 105.559 32.1098 105.541 32.0438C105.523 31.9718 105.481 31.8938 105.415 31.8098C105.355 31.7198 105.262 31.6418 105.136 31.5758C105.01 31.5038 104.842 31.4678 104.632 31.4678C104.344 31.4678 104.134 31.5338 104.002 31.6658C103.87 31.7978 103.804 31.9418 103.804 32.0978C103.804 32.2478 103.864 32.3708 103.984 32.4668C104.11 32.5568 104.272 32.6258 104.47 32.6738L105.127 32.8268C105.535 32.9228 105.871 33.0818 106.135 33.3038C106.405 33.5198 106.54 33.8318 106.54 34.2398C106.54 34.5038 106.471 34.7498 106.333 34.9778C106.195 35.1998 105.997 35.3768 105.739 35.5088C105.481 35.6408 105.166 35.7068 104.794 35.7068ZM111.952 35.7068C111.562 35.7068 111.22 35.6378 110.926 35.4998C110.632 35.3558 110.386 35.1668 110.188 34.9328C109.996 34.6928 109.849 34.4258 109.747 34.1318C109.651 33.8378 109.603 33.5378 109.603 33.2318C109.603 32.9258 109.651 32.6288 109.747 32.3408C109.843 32.0468 109.987 31.7798 110.179 31.5398C110.377 31.2998 110.623 31.1108 110.917 30.9728C111.211 30.8288 111.556 30.7568 111.952 30.7568C112.336 30.7568 112.654 30.8138 112.906 30.9278C113.158 31.0418 113.359 31.1858 113.509 31.3598C113.665 31.5278 113.779 31.6988 113.851 31.8728C113.929 32.0408 113.98 32.1818 114.004 32.2958C114.028 32.4098 114.04 32.4668 114.04 32.4668H113.212C113.212 32.4668 113.197 32.4188 113.167 32.3228C113.137 32.2208 113.08 32.1068 112.996 31.9808C112.912 31.8548 112.786 31.7438 112.618 31.6478C112.45 31.5458 112.228 31.4948 111.952 31.4948C111.622 31.4948 111.343 31.5788 111.115 31.7468C110.893 31.9088 110.725 32.1218 110.611 32.3858C110.503 32.6498 110.449 32.9318 110.449 33.2318C110.449 33.5318 110.503 33.8138 110.611 34.0778C110.725 34.3418 110.893 34.5578 111.115 34.7258C111.343 34.8878 111.622 34.9688 111.952 34.9688C112.228 34.9688 112.45 34.9208 112.618 34.8248C112.786 34.7228 112.912 34.6088 112.996 34.4828C113.08 34.3568 113.137 34.2458 113.167 34.1498C113.197 34.0478 113.212 33.9968 113.212 33.9968H114.04C114.04 33.9968 114.028 34.0538 114.004 34.1678C113.98 34.2818 113.929 34.4258 113.851 34.5998C113.779 34.7678 113.665 34.9388 113.509 35.1128C113.359 35.2808 113.158 35.4218 112.906 35.5358C112.654 35.6498 112.336 35.7068 111.952 35.7068ZM117.471 35.7068C116.961 35.7068 116.532 35.5898 116.184 35.3558C115.836 35.1158 115.572 34.8068 115.392 34.4288C115.212 34.0508 115.122 33.6518 115.122 33.2318C115.122 32.8058 115.212 32.4068 115.392 32.0348C115.572 31.6568 115.836 31.3508 116.184 31.1168C116.532 30.8768 116.961 30.7568 117.471 30.7568C117.981 30.7568 118.41 30.8768 118.758 31.1168C119.106 31.3508 119.37 31.6568 119.55 32.0348C119.73 32.4068 119.82 32.8058 119.82 33.2318C119.82 33.6518 119.73 34.0508 119.55 34.4288C119.37 34.8068 119.106 35.1158 118.758 35.3558C118.41 35.5898 117.981 35.7068 117.471 35.7068ZM117.471 34.9598C117.795 34.9598 118.065 34.8788 118.281 34.7168C118.503 34.5488 118.668 34.3328 118.776 34.0688C118.89 33.8048 118.947 33.5258 118.947 33.2318C118.947 32.9318 118.89 32.6528 118.776 32.3948C118.668 32.1308 118.503 31.9178 118.281 31.7558C118.065 31.5878 117.795 31.5038 117.471 31.5038C117.153 31.5038 116.883 31.5878 116.661 31.7558C116.439 31.9178 116.271 32.1308 116.157 32.3948C116.049 32.6528 115.995 32.9318 115.995 33.2318C115.995 33.5258 116.049 33.8048 116.157 34.0688C116.271 34.3328 116.439 34.5488 116.661 34.7168C116.883 34.8788 117.153 34.9598 117.471 34.9598ZM120.987 35.6168V30.8468H121.842V31.5398H121.878C121.926 31.4498 122.001 31.3448 122.103 31.2248C122.205 31.0988 122.343 30.9908 122.517 30.9008C122.697 30.8048 122.922 30.7568 123.192 30.7568C123.546 30.7568 123.843 30.8438 124.083 31.0178C124.329 31.1858 124.512 31.4138 124.632 31.7018H124.641C124.773 31.4378 124.959 31.2158 125.199 31.0358C125.445 30.8498 125.763 30.7568 126.153 30.7568C126.669 30.7568 127.065 30.9338 127.341 31.2878C127.623 31.6358 127.764 32.0858 127.764 32.6378V35.6168H126.909V32.6828C126.909 32.3288 126.825 32.0438 126.657 31.8278C126.489 31.6058 126.246 31.4948 125.928 31.4948C125.652 31.4948 125.43 31.5698 125.262 31.7198C125.1 31.8698 124.983 32.0558 124.911 32.2778C124.839 32.4998 124.803 32.7218 124.803 32.9438V35.6168H123.948V32.6828C123.948 32.3288 123.864 32.0438 123.696 31.8278C123.534 31.6058 123.291 31.4948 122.967 31.4948C122.691 31.4948 122.469 31.5698 122.301 31.7198C122.139 31.8698 122.022 32.0588 121.95 32.2868C121.878 32.5088 121.842 32.7278 121.842 32.9438V35.6168H120.987ZM129.11 37.3808V30.8468H129.965V31.6028H130.019C130.091 31.4888 130.187 31.3658 130.307 31.2338C130.433 31.1018 130.598 30.9908 130.802 30.9008C131.006 30.8048 131.258 30.7568 131.558 30.7568C131.918 30.7568 132.233 30.8288 132.503 30.9728C132.773 31.1108 132.998 31.2998 133.178 31.5398C133.358 31.7738 133.493 32.0378 133.583 32.3318C133.673 32.6258 133.718 32.9258 133.718 33.2318C133.718 33.5378 133.673 33.8378 133.583 34.1318C133.493 34.4258 133.358 34.6928 133.178 34.9328C132.998 35.1668 132.773 35.3558 132.503 35.4998C132.233 35.6378 131.918 35.7068 131.558 35.7068C131.258 35.7068 131.006 35.6588 130.802 35.5628C130.598 35.4668 130.433 35.3528 130.307 35.2208C130.187 35.0888 130.091 34.9688 130.019 34.8608H129.965V37.3808H129.11ZM129.983 33.2318C129.983 33.5198 130.034 33.7988 130.136 34.0688C130.244 34.3328 130.403 34.5518 130.613 34.7258C130.829 34.8938 131.096 34.9778 131.414 34.9778C131.738 34.9778 132.005 34.8938 132.215 34.7258C132.431 34.5518 132.59 34.3328 132.692 34.0688C132.8 33.7988 132.854 33.5198 132.854 33.2318C132.854 32.9378 132.8 32.6588 132.692 32.3948C132.59 32.1308 132.431 31.9148 132.215 31.7468C132.005 31.5728 131.738 31.4858 131.414 31.4858C131.096 31.4858 130.829 31.5728 130.613 31.7468C130.403 31.9148 130.244 32.1308 130.136 32.3948C130.034 32.6588 129.983 32.9378 129.983 33.2318ZM136.917 30.7568C137.217 30.7568 137.469 30.8048 137.673 30.9008C137.877 30.9968 138.042 31.1108 138.168 31.2428C138.294 31.3688 138.39 31.4888 138.456 31.6028H138.51V30.8468H139.365V35.6168H138.51V34.8608H138.456C138.39 34.9748 138.294 35.0978 138.168 35.2298C138.042 35.3618 137.877 35.4758 137.673 35.5718C137.469 35.6618 137.217 35.7068 136.917 35.7068C136.557 35.7068 136.242 35.6378 135.972 35.4998C135.702 35.3558 135.477 35.1668 135.297 34.9328C135.117 34.6928 134.982 34.4258 134.892 34.1318C134.802 33.8378 134.757 33.5378 134.757 33.2318C134.757 32.9258 134.802 32.6258 134.892 32.3318C134.982 32.0378 135.117 31.7738 135.297 31.5398C135.477 31.2998 135.702 31.1108 135.972 30.9728C136.242 30.8288 136.557 30.7568 136.917 30.7568ZM137.061 31.4858C136.743 31.4858 136.476 31.5728 136.26 31.7468C136.044 31.9148 135.882 32.1308 135.774 32.3948C135.672 32.6588 135.621 32.9378 135.621 33.2318C135.621 33.5198 135.672 33.7988 135.774 34.0688C135.882 34.3328 136.044 34.5518 136.26 34.7258C136.476 34.8938 136.743 34.9778 137.061 34.9778C137.379 34.9778 137.643 34.8938 137.853 34.7258C138.069 34.5518 138.228 34.3328 138.33 34.0688C138.438 33.7988 138.492 33.5198 138.492 33.2318C138.492 32.9378 138.438 32.6588 138.33 32.3948C138.228 32.1308 138.069 31.9148 137.853 31.7468C137.643 31.5728 137.379 31.4858 137.061 31.4858ZM140.621 35.6168V30.8468H141.476V31.5398H141.53C141.572 31.4678 141.641 31.3688 141.737 31.2428C141.839 31.1168 141.983 31.0058 142.169 30.9098C142.355 30.8078 142.589 30.7568 142.871 30.7568C143.219 30.7568 143.516 30.8378 143.762 30.9998C144.008 31.1558 144.194 31.3688 144.32 31.6388C144.452 31.9088 144.518 32.2118 144.518 32.5478V35.6168H143.663V32.6018C143.663 32.2838 143.573 32.0198 143.393 31.8098C143.219 31.5998 142.964 31.4948 142.628 31.4948C142.358 31.4948 142.139 31.5638 141.971 31.7018C141.803 31.8338 141.677 32.0108 141.593 32.2328C141.515 32.4488 141.476 32.6798 141.476 32.9258V35.6168H140.621ZM145.688 37.3718C145.55 37.3718 145.433 37.3658 145.337 37.3538C145.241 37.3418 145.193 37.3358 145.193 37.3358V36.6068C145.193 36.6068 145.241 36.6098 145.337 36.6158C145.439 36.6278 145.547 36.6338 145.661 36.6338C146.015 36.6338 146.303 36.5588 146.525 36.4088C146.753 36.2648 146.945 36.0248 147.101 35.6888L145.256 30.8468H146.147L147.524 34.5728L148.91 30.8468H149.81L147.965 35.6258C147.731 36.2258 147.428 36.6668 147.056 36.9488C146.69 37.2308 146.234 37.3718 145.688 37.3718Z" fill="#4D4D4D"/>
</svg>
